<?xml version="1.0" encoding="UTF-8"?>
<svg width="24px" height="24px" viewBox="0 0 24 24" version="1.1" xmlns="http://www.w3.org/2000/svg" xmlns:xlink="http://www.w3.org/1999/xlink">
    <title>BBQ Icon</title>
    <g id="Page-1" stroke="none" stroke-width="1" fill="none" fill-rule="evenodd">
        <g id="bbq-icon" fill="#FF4136" fill-rule="nonzero">
            <path d="M17,10c0-3.87-3.13-7-7-7s-7,3.13-7,7h14zM7,12H5v2h2v-2zm10,0h-2v2h2v-2zm-6,0h-2v2h2v-2zm-4,4H5v2h2v-2zm10,0h-2v2h2v-2zm-6,0h-2v2h2v-2zM19,3h-2v2h2V3zM3,3h2v2H3V3zm18,18h-2v-2h2v2zM3,21h2v-2H3v2z" id="Shape"></path>
        </g>
    </g>
</svg>